<svg width="34" height="40" viewBox="0 0 34 40" fill="none" xmlns="http://www.w3.org/2000/svg">
<g clip-path="url(#clip0_56_1907)">
<path d="M5.11037 15.1661C5.17074 14.9957 5.26684 14.8559 5.37402 14.7235C5.70913 14.3091 6.04424 13.8946 6.37934 13.4802C9.52959 9.58482 12.6798 5.68943 15.8288 1.79281C16.0728 1.49119 16.3598 1.25332 16.7356 1.13316C17.3627 0.93085 17.9491 1.01913 18.4764 1.40536C19.5433 2.18517 20.6053 2.97112 21.6698 3.75461C22.8242 4.60431 23.9773 5.45401 25.1317 6.30371C25.1712 6.33314 25.213 6.35766 25.2673 6.39445C25.2833 6.22156 25.2402 6.0732 25.2254 5.92239C25.2069 5.7397 25.1736 5.55701 25.1514 5.37431C25.0886 4.85199 25.4262 4.40323 25.9609 4.3174C26.3182 4.25977 26.6791 4.22299 27.0389 4.17762C27.1609 4.16291 27.2816 4.14697 27.4036 4.13471C27.9309 4.08076 28.4212 4.42775 28.5111 4.93659C28.5752 5.30442 28.6146 5.67594 28.6639 6.04623C28.7526 6.70711 28.8401 7.36921 28.9275 8.03009C28.9731 8.37095 29.0212 8.71059 29.0594 9.05145C29.0717 9.16426 29.1136 9.2415 29.2084 9.31016C30.1448 9.99434 31.0774 10.6834 32.0113 11.37C32.3759 11.6373 32.6236 11.9794 32.7258 12.4159C32.9365 13.3196 32.2798 14.2527 31.3386 14.3863C31.1415 14.4145 30.9431 14.4354 30.746 14.4636C30.6376 14.4795 30.6351 14.4832 30.6487 14.5837C30.7164 15.1122 30.7866 15.6406 30.8556 16.1679C30.8741 16.3064 30.8877 16.445 30.9099 16.5823C30.9333 16.7221 30.9197 16.7024 30.8088 16.7613C30.6055 16.8692 30.4207 17.0016 30.2606 17.1647C29.8146 17.6184 29.5879 18.1566 29.6089 18.7869C29.6236 19.2148 29.6828 19.639 29.7247 20.0657C29.7986 20.8234 29.8787 21.5812 29.8331 22.3451C29.7431 23.852 29.3316 25.2694 28.5444 26.569C27.0537 29.0299 24.8619 30.5625 21.9963 31.1695C21.193 31.3399 20.3774 31.3951 19.5569 31.3485C17.3738 31.2259 15.4408 30.4791 13.7603 29.1145C13.6309 29.009 13.504 28.9011 13.3759 28.7932C13.2811 28.7135 13.2811 28.7123 13.3229 28.5921C13.578 27.8785 13.833 27.1637 14.088 26.4501C14.2605 25.9658 14.4367 25.4839 14.6055 24.9984C14.8814 24.2039 14.4441 23.386 13.6223 23.1568C13.3451 23.0795 13.0679 23.0832 12.7919 23.1653C12.0798 23.3787 11.3665 23.592 10.6544 23.8066C10.4856 23.8569 10.4869 23.8569 10.4524 23.6926C10.3575 23.2377 10.3107 22.7779 10.2663 22.3169C10.2109 21.7369 10.1518 21.1582 10.0951 20.5782C10.0495 20.1123 9.99775 19.6476 9.96202 19.1804C9.90781 18.4435 9.72671 17.7459 9.31645 17.1181C8.59573 16.0158 7.56946 15.3709 6.23889 15.1882C5.89763 15.1416 5.55636 15.149 5.21386 15.1759C5.18429 15.1784 5.15349 15.1894 5.10791 15.1661M25.5925 25.2461C25.5568 24.9775 25.5161 24.66 25.4742 24.3424C25.4003 23.7772 25.3276 23.2107 25.2537 22.6455C25.1785 22.0704 25.1022 21.4954 25.027 20.9203C24.9531 20.3551 24.8804 19.7886 24.8065 19.2234C24.7313 18.6532 24.6549 18.0831 24.581 17.5129C24.5071 16.9428 24.4344 16.3714 24.3605 15.8012C24.2767 15.1563 24.1892 14.5114 24.1055 13.8652C24.0217 13.2203 23.9404 12.5741 23.8566 11.9292C23.7593 11.1861 23.6619 10.4431 23.5646 9.69884C23.5424 9.52596 23.5227 9.35308 23.4969 9.18019C23.4784 9.049 23.4747 9.04777 23.2948 9.05268C23.0804 9.05881 22.8673 9.06984 22.6542 9.07965C21.7992 9.11644 20.9441 9.15199 20.0891 9.19C19.9327 9.19736 19.9277 9.19859 19.9425 9.31384C19.9807 9.63631 20.0238 9.95878 20.0657 10.2813C20.1396 10.8465 20.2136 11.413 20.2875 11.9782C20.3626 12.5533 20.4366 13.1283 20.5129 13.7034C20.5782 14.1987 20.6435 14.6941 20.7088 15.1894C20.7519 15.5168 20.7963 15.8442 20.8357 16.1715C20.8505 16.2942 20.8616 16.3076 20.6694 16.315C19.7811 16.3493 18.8928 16.3898 18.0046 16.4278C17.8703 16.4339 17.869 16.4327 17.8543 16.3285C17.8111 16.0011 17.7693 15.6737 17.7261 15.3464C17.651 14.7713 17.5746 14.1963 17.4994 13.6212C17.4255 13.056 17.3528 12.4895 17.2789 11.9243C17.2038 11.3443 17.1261 10.7643 17.051 10.1856C17.019 9.93794 16.9894 9.69026 16.9549 9.44258C16.9389 9.32856 16.9364 9.3261 16.7713 9.33101C16.557 9.33714 16.3438 9.3494 16.1295 9.35798C15.3139 9.39231 14.4995 9.42419 13.6839 9.45975C13.3735 9.47324 13.3784 9.47692 13.4092 9.69639C13.4782 10.1917 13.541 10.6871 13.6063 11.1825C13.6815 11.7575 13.7566 12.3326 13.8318 12.9076C13.9057 13.4777 13.9796 14.0479 14.0548 14.6193C14.12 15.1146 14.1853 15.61 14.2506 16.1053C14.3246 16.6706 14.3985 17.237 14.4712 17.8023C14.5463 18.3773 14.6215 18.9524 14.6966 19.5274C14.7705 20.0976 14.8445 20.6677 14.9196 21.2391C14.9849 21.7345 15.0502 22.2298 15.1155 22.7252C15.1894 23.2953 15.2634 23.8654 15.3373 24.4368C15.3952 24.8758 15.4531 25.316 15.5122 25.7549C15.5258 25.8518 15.5344 25.8554 15.6748 25.8505C16.7504 25.8052 17.8259 25.7598 18.9015 25.7132C19.0764 25.7059 19.0752 25.7046 19.0592 25.5796C18.9951 25.0793 18.9323 24.5791 18.867 24.0788C18.8066 23.6067 18.7438 23.1347 18.6822 22.6626C18.6058 22.0876 18.5294 21.5125 18.4543 20.9375C18.3779 20.3575 18.3015 19.7776 18.2263 19.1988C18.1906 18.923 18.1536 18.6471 18.1228 18.3712C18.1118 18.2707 18.1191 18.2707 18.2596 18.2633C18.5331 18.251 18.8066 18.2376 19.0813 18.2265C19.6961 18.2008 20.3109 18.175 20.9257 18.1517C21.0957 18.1456 21.0944 18.148 21.1092 18.2719C21.1413 18.5294 21.1758 18.7869 21.209 19.0431C21.294 19.6881 21.3803 20.333 21.464 20.9792C21.5478 21.6241 21.6304 22.269 21.7141 22.9152C21.7905 23.5001 21.8669 24.0837 21.9445 24.6686C21.9803 24.9346 22.0123 25.2019 22.0517 25.468C22.0677 25.5808 22.0739 25.5808 22.2193 25.5747C23.2887 25.5293 24.3568 25.4839 25.425 25.4386C25.6085 25.4312 25.6085 25.43 25.5937 25.2497" fill="#9E0B0B"/>
<path d="M12.9977 23.7943C13.7184 23.7943 14.1964 24.4331 13.9759 25.0805C13.7763 25.6678 13.5607 26.2502 13.3525 26.8338C12.9373 27.9974 12.5209 29.161 12.1057 30.3246C12.0872 30.3749 12.07 30.4264 12.0503 30.4754C11.895 30.858 11.5402 31.0971 11.1213 31.0995C10.7086 31.102 10.3501 30.8764 10.1924 30.4987C10.0175 30.0794 9.85238 29.6552 9.68483 29.2334C9.62199 29.074 9.5567 28.9158 9.49633 28.7564C9.42487 28.5688 9.30044 28.4339 9.11564 28.3432C8.43187 28.0085 7.75057 27.6701 7.06681 27.3341C6.86476 27.2348 6.69721 27.1024 6.59002 26.9062C6.28818 26.3569 6.56661 25.6936 7.18631 25.5023C7.70992 25.3404 8.23722 25.1859 8.76205 25.0278C10.0421 24.6428 11.3222 24.2578 12.6022 23.8728C12.7414 23.8311 12.8782 23.7845 13.0002 23.7943" fill="#9E0B0B"/>
<path d="M13.1911 29.7384C13.2404 29.7482 13.27 29.7862 13.3057 29.8144C14.709 30.9498 16.3032 31.6929 18.0945 32.0325C19.0579 32.2152 20.0312 32.263 21.0094 32.1735C23.5129 31.943 25.6726 30.9768 27.4689 29.2676C29.0002 27.811 29.9809 26.049 30.4269 24.0075C30.6166 23.1419 30.6832 22.2652 30.6339 21.3812C30.6068 20.8919 30.5489 20.4027 30.5021 19.9147C30.4688 19.5677 30.4232 19.2207 30.401 18.8725C30.3407 17.9591 31.0515 17.1694 31.9965 17.1069C32.9562 17.0444 33.741 17.7445 33.8199 18.6322C33.8815 19.3274 33.9615 20.0214 34.0244 20.7166C34.0884 21.4388 34.0934 22.1622 34.0416 22.8856C33.9714 23.869 33.794 24.8327 33.5045 25.7756C32.838 27.9458 31.6885 29.839 30.0672 31.4599C29.7727 31.7542 29.4635 32.03 29.1469 32.301C29.0643 32.3721 28.999 32.3905 28.8869 32.3501C26.9699 31.672 24.9087 32.7964 24.496 34.7459C24.4751 34.8428 24.4258 34.8771 24.3396 34.9041C23.5252 35.1542 22.6973 35.3369 21.8497 35.4423C21.1573 35.5282 20.4637 35.5698 19.7663 35.5502C19.4288 35.5416 19.0924 35.5098 18.7549 35.4951C18.6526 35.4901 18.6169 35.4374 18.5824 35.3553C18.1327 34.2849 17.3294 33.6068 16.1689 33.3616C15.2572 33.1691 14.4034 33.3444 13.6285 33.8533C13.5201 33.9244 13.4461 33.9232 13.3377 33.8643C11.0721 32.6308 9.27703 30.9302 7.96371 28.7489C7.93044 28.6938 7.88609 28.6423 7.87131 28.565C7.91812 28.5662 7.95139 28.5895 7.98588 28.6067C8.24584 28.7342 8.50333 28.8654 8.76451 28.9893C8.83967 29.0248 8.88402 29.0739 8.91482 29.1511C9.10578 29.6379 9.29551 30.1246 9.49756 30.6065C9.7341 31.1693 10.1653 31.5273 10.7715 31.6683C11.6499 31.8731 12.5406 31.4133 12.8683 30.5918C12.9607 30.3613 13.0371 30.1246 13.1221 29.8905C13.1406 29.839 13.148 29.7813 13.1911 29.7396" fill="black"/>
<path d="M6.51362 25.2781C6.4434 25.0623 6.40274 24.8502 6.35716 24.638C6.22903 24.0323 6.15511 23.4205 6.09967 22.805C6.03684 22.1147 5.96292 21.4256 5.89515 20.7353C5.8508 20.2878 5.80768 19.839 5.76456 19.3915C5.74239 19.1585 5.61549 19.0604 5.38141 19.0825C4.77156 19.1401 4.16172 19.1953 3.55188 19.2505C2.97776 19.3032 2.40488 19.362 1.83076 19.4062C1.01394 19.4687 0.32155 18.9574 0.0899323 18.2696C-0.250102 17.2641 0.433663 16.2134 1.51537 16.0907C2.03158 16.0319 2.54902 15.9914 3.06523 15.9424C3.67015 15.886 4.2763 15.8406 4.87875 15.7695C5.89762 15.6506 6.83518 15.8406 7.66555 16.439C8.5218 17.0557 9.02815 17.8846 9.15874 18.9182C9.22158 19.4148 9.261 19.915 9.31028 20.4128C9.36942 21.0075 9.42979 21.6009 9.48646 22.1956C9.52588 22.6088 9.55668 23.022 9.62198 23.4328C9.64908 23.6081 9.68358 23.7822 9.71561 23.9563C9.74272 24.0998 9.74272 24.0998 9.60473 24.1415C9.20802 24.2616 8.81132 24.3818 8.41461 24.5007C8.06226 24.6062 7.71113 24.7141 7.35755 24.817C7.06433 24.9016 6.79945 25.0341 6.57399 25.2376C6.55921 25.2511 6.54196 25.2609 6.51486 25.2781" fill="black"/>
<path d="M15.495 34.583C16.589 34.5842 17.4871 35.4585 17.4859 36.524C17.4847 37.5662 16.6543 38.4747 15.4802 38.4784C14.3775 38.4833 13.4856 37.5968 13.488 36.524C13.4905 35.4548 14.3936 34.5818 15.4962 34.583" fill="black"/>
<path d="M27.7522 33.445C28.898 33.4622 29.7678 34.3364 29.7493 35.451C29.7308 36.5079 28.8117 37.3576 27.7054 37.3404C26.6101 37.3233 25.7391 36.4392 25.7527 35.3627C25.7675 34.296 26.6705 33.4291 27.7522 33.445Z" fill="black"/>
</g>
<defs>
<clipPath id="clip0_56_1907">
<rect width="34" height="40" fill="white"/>
</clipPath>
</defs>
</svg>
