<svg width="149" height="80" viewBox="0 0 149 80" fill="none" xmlns="http://www.w3.org/2000/svg">
<g clip-path="url(#clip0_3_65)">
<path d="M9.16861 27.2986C9.27691 26.9918 9.44932 26.7402 9.64162 26.5019C10.2428 25.7559 10.8441 25.0099 11.4453 24.264C17.0972 17.2523 22.7491 10.2406 28.3988 3.22666C28.8365 2.68373 29.3515 2.25557 30.0256 2.03928C31.1507 1.67513 32.2028 1.83403 33.1489 2.52924C35.0631 3.93291 36.9684 5.3476 38.8781 6.75789C40.9493 8.28735 43.0182 9.81682 45.0893 11.3463C45.16 11.3993 45.2352 11.4434 45.3324 11.5096C45.3612 11.1984 45.2838 10.9314 45.2573 10.6599C45.2241 10.3311 45.1644 10.0022 45.1246 9.67336C45.0119 8.73317 45.6176 7.9254 46.5769 7.77091C47.2179 7.66718 47.8655 7.60097 48.5109 7.51931C48.7298 7.49283 48.9464 7.46414 49.1652 7.44207C50.1112 7.34496 50.991 7.96954 51.1523 8.88545C51.2673 9.54756 51.338 10.2163 51.4264 10.8828C51.5856 12.0724 51.7425 13.2642 51.8994 14.4538C51.9812 15.0673 52.0674 15.6787 52.1359 16.2922C52.158 16.4953 52.2332 16.6343 52.4034 16.7579C54.0833 17.9894 55.7565 19.2298 57.432 20.4657C58.0862 20.9468 58.5305 21.5626 58.714 22.3483C59.092 23.9748 57.9138 25.6544 56.2251 25.8949C55.8715 25.9457 55.5156 25.9832 55.1619 26.034C54.9674 26.0627 54.963 26.0693 54.9873 26.2503C55.1089 27.2015 55.2349 28.1527 55.3586 29.1017C55.3918 29.3511 55.4161 29.6005 55.4559 29.8477C55.4979 30.0993 55.4736 30.064 55.2747 30.1699C54.9099 30.3642 54.5784 30.6025 54.291 30.8961C53.4909 31.7126 53.0842 32.6815 53.1218 33.8159C53.1483 34.5862 53.2544 35.3498 53.3295 36.1179C53.4622 37.4818 53.6058 38.8457 53.524 40.2207C53.3627 42.9331 52.6244 45.4844 51.212 47.8239C48.5375 52.2534 44.6052 55.0121 39.4639 56.1046C38.0227 56.4114 36.5595 56.5107 35.0874 56.4268C31.1706 56.2061 27.7025 54.8621 24.6876 52.4057C24.4555 52.2158 24.2278 52.0216 23.998 51.8274C23.8278 51.684 23.8278 51.6818 23.9029 51.4655C24.3605 50.181 24.818 48.8943 25.2756 47.6098C25.585 46.738 25.9011 45.8707 26.2039 44.9967C26.699 43.5665 25.9143 42.0945 24.44 41.6817C23.9427 41.5427 23.4454 41.5493 22.9502 41.6972C21.6727 42.0812 20.3929 42.4652 19.1153 42.8515C18.8124 42.942 18.8146 42.942 18.7528 42.6462C18.5826 41.8274 18.4986 40.9998 18.419 40.1699C18.3195 39.126 18.2134 38.0843 18.1118 37.0404C18.03 36.2017 17.9371 35.3653 17.873 34.5244C17.7758 33.198 17.4509 31.9422 16.7148 30.8122C15.4217 28.8281 13.5805 27.6672 11.1933 27.3383C10.581 27.2545 9.96876 27.2677 9.35428 27.3163C9.30123 27.3207 9.24597 27.3405 9.16418 27.2986M45.916 45.4425C45.8519 44.9592 45.7789 44.3876 45.7038 43.8159C45.5711 42.7985 45.4407 41.7789 45.3081 40.7614C45.1733 39.7263 45.0362 38.6912 44.9014 37.6561C44.7688 36.6387 44.6384 35.6191 44.5057 34.6016C44.3709 33.5754 44.2339 32.5491 44.1012 31.5228C43.9686 30.4966 43.8382 29.4681 43.7056 28.4418C43.5553 27.281 43.3984 26.1201 43.2481 24.957C43.0977 23.7961 42.9519 22.633 42.8016 21.4721C42.6269 20.1346 42.4523 18.7972 42.2777 17.4575C42.2379 17.1463 42.2025 16.8351 42.1561 16.5239C42.123 16.2878 42.1163 16.2856 41.7936 16.2944C41.409 16.3055 41.0266 16.3253 40.6442 16.343C39.1102 16.4092 37.5762 16.4732 36.0422 16.5416C35.7615 16.5548 35.7527 16.5571 35.7792 16.7645C35.8477 17.345 35.9251 17.9254 36.0003 18.5058C36.1329 19.5233 36.2655 20.5429 36.3981 21.5604C36.533 22.5955 36.6656 23.6305 36.8026 24.6656C36.9198 25.5573 37.0369 26.4489 37.1541 27.3405C37.2314 27.9298 37.311 28.5191 37.3817 29.1084C37.4083 29.3291 37.4282 29.3533 37.0833 29.3666C35.4897 29.4284 33.896 29.5012 32.3023 29.5696C32.0614 29.5807 32.0592 29.5785 32.0326 29.3909C31.9553 28.8016 31.8801 28.2123 31.8028 27.623C31.6679 26.5879 31.5309 25.5529 31.3961 24.5178C31.2634 23.5003 31.133 22.4807 31.0004 21.4633C30.8656 20.4193 30.7263 19.3754 30.5915 18.3337C30.534 17.8879 30.481 17.4421 30.4191 16.9962C30.3903 16.791 30.3859 16.7866 30.0897 16.7954C29.7051 16.8064 29.3227 16.8285 28.9381 16.844C27.4749 16.9058 26.0138 16.9631 24.5506 17.0271C23.9935 17.0514 24.0024 17.058 24.0576 17.4531C24.1814 18.3447 24.2941 19.2364 24.4113 20.128C24.5461 21.1631 24.681 22.1982 24.8158 23.2333C24.9484 24.2595 25.081 25.2858 25.2159 26.3143C25.333 27.2059 25.4502 28.0976 25.5673 28.9892C25.6999 30.0066 25.8326 31.0263 25.963 32.0437C26.0978 33.0788 26.2326 34.1139 26.3675 35.149C26.5001 36.1752 26.6327 37.2015 26.7675 38.23C26.8847 39.1216 27.0018 40.0132 27.119 40.9049C27.2516 41.9311 27.3842 42.9574 27.5169 43.9859C27.6208 44.776 27.7246 45.5683 27.8307 46.3584C27.8551 46.5328 27.8705 46.5394 28.1225 46.5306C30.0522 46.4489 31.9818 46.3672 33.9115 46.2834C34.2253 46.2701 34.2231 46.2679 34.1944 46.0428C34.0794 45.1424 33.9667 44.2419 33.8496 43.3414C33.7413 42.4917 33.6285 41.642 33.518 40.7923C33.381 39.7572 33.2439 38.7221 33.1091 37.687C32.972 36.6431 32.835 35.5992 32.7002 34.5575C32.6361 34.0609 32.5698 33.5643 32.5145 33.0678C32.4946 32.8868 32.5079 32.8868 32.7599 32.8735C33.2506 32.8515 33.7413 32.8272 34.2342 32.8073C35.3371 32.761 36.4401 32.7146 37.5431 32.6727C37.8481 32.6617 37.8459 32.6661 37.8724 32.889C37.9299 33.3525 37.9918 33.8159 38.0515 34.2772C38.204 35.4381 38.3587 36.599 38.509 37.7621C38.6593 38.923 38.8074 40.0839 38.9577 41.247C39.0948 42.2997 39.2318 43.3503 39.3711 44.403C39.4352 44.8819 39.4926 45.3631 39.5634 45.842C39.5921 46.045 39.6032 46.045 39.864 46.034C41.7826 45.9523 43.699 45.8707 45.6153 45.789C45.9447 45.7758 45.9447 45.7736 45.9182 45.4491" fill="#9E0B0B"/>
<path d="M23.3194 42.8294C24.6124 42.8294 25.4701 43.9792 25.0744 45.1446C24.7163 46.2017 24.3295 47.2501 23.956 48.3006C23.2111 50.3951 22.464 52.4895 21.7191 54.584C21.6859 54.6745 21.655 54.7672 21.6196 54.8554C21.3411 55.544 20.7045 55.9744 19.953 55.9788C19.2125 55.9832 18.5693 55.5771 18.2864 54.8974C17.9725 54.1426 17.6763 53.3789 17.3757 52.6197C17.263 52.3328 17.1458 52.0481 17.0375 51.7612C16.9093 51.4235 16.6861 51.1807 16.3545 51.0174C15.1278 50.4149 13.9054 49.8058 12.6787 49.2011C12.3162 49.0223 12.0156 48.7839 11.8233 48.4308C11.2817 47.4421 11.7813 46.2481 12.8931 45.9038C13.8325 45.6124 14.7785 45.3344 15.7201 45.0497C18.0167 44.3566 20.3133 43.6636 22.6098 42.9706C22.8596 42.8956 23.105 42.8117 23.3238 42.8294" fill="#9E0B0B"/>
<path d="M23.6664 53.529C23.7548 53.5467 23.8079 53.6151 23.872 53.6659C26.3896 55.7096 29.2498 57.047 32.4637 57.6583C34.1922 57.9872 35.9384 58.0733 37.6934 57.9122C42.1849 57.4972 46.0596 55.7581 49.2824 52.6815C52.0298 50.0596 53.7893 46.8881 54.5894 43.2134C54.9298 41.6553 55.0492 40.0772 54.9608 38.486C54.9122 37.6054 54.8083 36.7248 54.7243 35.8464C54.6646 35.2218 54.5828 34.5972 54.543 33.9704C54.4347 32.3262 55.7101 30.9049 57.4055 30.7923C59.1273 30.6798 60.5353 31.94 60.6768 33.5378C60.7873 34.7892 60.931 36.0384 61.0437 37.2898C61.1587 38.5897 61.1675 39.8919 61.0747 41.194C60.9487 42.964 60.6304 44.6987 60.1109 46.3959C58.9151 50.3024 56.8529 53.71 53.944 56.6277C53.4157 57.1574 52.8609 57.6539 52.2929 58.1417C52.1448 58.2697 52.0276 58.3028 51.8265 58.23C48.3872 57.0095 44.6892 59.0333 43.9487 62.5425C43.9112 62.7168 43.8227 62.7786 43.668 62.8272C42.207 63.2774 40.7216 63.6063 39.2009 63.7961C37.9586 63.9506 36.7142 64.0256 35.4631 63.9903C34.8575 63.9748 34.2541 63.9174 33.6484 63.891C33.465 63.8821 33.4009 63.7872 33.339 63.6394C32.5322 61.7126 31.091 60.4922 29.0089 60.0508C27.3732 59.7043 25.8414 60.0199 24.4511 60.9358C24.2566 61.0638 24.124 61.0616 23.9294 60.9556C19.8646 58.7354 16.6441 55.6742 14.2878 51.748C14.2281 51.6486 14.1486 51.5559 14.122 51.4169C14.206 51.4191 14.2657 51.461 14.3276 51.4919C14.794 51.7215 15.256 51.9576 15.7246 52.1805C15.8594 52.2445 15.939 52.3328 15.9942 52.4719C16.3368 53.348 16.6772 54.2242 17.0397 55.0916C17.4641 56.1046 18.2377 56.7491 19.3252 57.0029C20.9012 57.3714 22.4993 56.5438 23.0873 55.0651C23.2531 54.6502 23.3901 54.2242 23.5426 53.8027C23.5758 53.71 23.589 53.6063 23.6664 53.5312" fill="black"/>
<path d="M11.6862 45.4999C11.5602 45.1115 11.4873 44.7296 11.4055 44.3478C11.1756 43.2576 11.043 42.1563 10.9435 41.0483C10.8308 39.8058 10.6982 38.5654 10.5766 37.3229C10.497 36.5173 10.4197 35.7096 10.3423 34.904C10.3025 34.4847 10.0749 34.3081 9.65489 34.3478C8.56075 34.4516 7.46662 34.5509 6.37249 34.6502C5.34246 34.7451 4.31464 34.851 3.28461 34.9305C1.81913 35.043 0.576908 34.1227 0.161359 32.8846C-0.448703 31.0748 0.778051 29.1834 2.71875 28.9627C3.6449 28.8568 4.57325 28.7839 5.4994 28.6957C6.58469 28.5941 7.67219 28.5125 8.75306 28.3845C10.581 28.1704 12.2631 28.5125 13.7529 29.5895C15.2891 30.6996 16.1976 32.1916 16.4319 34.0521C16.5446 34.9459 16.6153 35.8464 16.7037 36.7424C16.8098 37.8128 16.9182 38.881 17.0198 39.9514C17.0906 40.6952 17.1458 41.439 17.263 42.1783C17.3116 42.4939 17.3735 42.8073 17.431 43.1207C17.4796 43.3789 17.4796 43.3789 17.232 43.454C16.5203 43.6703 15.8086 43.8866 15.0968 44.1006C14.4646 44.2904 13.8347 44.4847 13.2003 44.67C12.6742 44.8223 12.199 45.0607 11.7945 45.4271C11.768 45.4513 11.7371 45.469 11.6884 45.4999" fill="black"/>
<path d="M27.7998 62.2489C29.7626 62.2512 31.374 63.8248 31.3717 65.7427C31.3695 67.6186 29.8797 69.254 27.7733 69.2607C25.795 69.2695 24.1947 67.6738 24.1991 65.7427C24.2035 63.8181 25.8237 62.2467 27.802 62.2489" fill="black"/>
<path d="M49.7907 60.2008C51.8464 60.2317 53.4069 61.8053 53.3737 63.8115C53.3406 65.714 51.6917 67.2434 49.7067 67.2125C47.7417 67.1816 46.179 65.5904 46.2033 63.6526C46.2298 61.7325 47.85 60.1721 49.7907 60.2008Z" fill="black"/>
<g style="mix-blend-mode:multiply" opacity="0.4">
<mask id="mask0_3_65" style="mask-type:luminance" maskUnits="userSpaceOnUse" x="7" y="74" width="66" height="6">
<path d="M72.9399 74.2397H7.45999V80H72.9399V74.2397Z" fill="white"/>
</mask>
<g mask="url(#mask0_3_65)">
<mask id="mask1_3_65" style="mask-type:luminance" maskUnits="userSpaceOnUse" x="7" y="74" width="66" height="6">
<path d="M72.9399 77.1198C72.9399 78.7111 58.2808 80 40.2 80C22.1191 80 7.45999 78.7111 7.45999 77.1198C7.45999 75.5286 22.1191 74.2397 40.2 74.2397C58.2808 74.2397 72.9399 75.5286 72.9399 77.1198Z" fill="white"/>
</mask>
<g mask="url(#mask1_3_65)">
<path d="M72.9399 74.2397H7.45999V80H72.9399V74.2397Z" fill="url(#paint0_radial_3_65)"/>
</g>
</g>
</g>
<path d="M75.1812 0.59148V2.92651H72.3542V21.6089H68.6606V2.92651H65.8734V0.59148H75.1812Z" fill="black"/>
<path d="M86.1778 8.71993V21.6089H82.6434V9.04657C82.6434 8.13066 82.2898 7.68705 81.4653 7.68705C80.6408 7.68705 80.0507 8.27853 80.0507 9.04657V21.6089H76.5163V0H80.0507V6.97639H80.2474C80.6784 6.08916 81.662 5.38071 83.1142 5.38071C85.3136 5.38071 86.1778 6.32531 86.1778 8.71993Z" fill="black"/>
<path d="M97.6076 14.0124H91.5976V18.2388C91.5976 19.126 92.0684 19.5983 92.9327 19.5983C93.7969 19.5983 94.228 19.126 94.228 18.2388V15.341L97.6054 15.6367V17.7069C97.6054 19.7462 96.7014 21.8451 92.8929 21.8451C89.0844 21.8451 88.061 19.9823 88.061 17.7069V9.51887C88.061 7.47959 89.1618 5.38071 92.8929 5.38071C96.624 5.38071 97.6054 7.47959 97.6054 9.51887V14.0124H97.6076ZM91.5976 8.98698V12.09H94.2302V8.98698C94.2302 8.09976 93.7992 7.62746 92.9349 7.62746C92.0706 7.62746 91.5998 8.09976 91.5998 8.98698" fill="black"/>
<path d="M75.4774 24.0786H79.1709V45.096H75.4774V35.5462H72.3365V45.096H68.6452V24.0786H72.3365V33.2112H75.4774V24.0786Z" fill="#9E0B0B"/>
<path d="M81.1337 41.311V33.0038C81.1337 30.9645 82.2345 28.8656 86.0032 28.8656C89.7719 28.8656 90.8748 30.9645 90.8748 33.0038V41.311C90.8748 43.3812 89.8536 45.3322 86.0032 45.3322C82.1527 45.3322 81.1337 43.3812 81.1337 41.311ZM87.3007 41.7546V32.4719C87.3007 31.556 86.8696 31.1123 86.0032 31.1123C85.1367 31.1123 84.6681 31.556 84.6681 32.4719V41.7546C84.6681 42.6418 85.1389 43.0854 86.0032 43.0854C86.8674 43.0854 87.3007 42.6418 87.3007 41.7546Z" fill="#9E0B0B"/>
<path d="M108.549 32.207V45.096H105.015V32.5337C105.015 31.6177 104.661 31.1741 103.836 31.1741C103.012 31.1741 102.422 31.6177 102.422 32.4741V45.096H98.8874V32.5337C98.8874 31.6177 98.5338 31.1741 97.7093 31.1741C96.8848 31.1741 96.2947 31.7656 96.2947 32.5337V45.096H92.7603V29.1039H96.1377L96.2947 30.4635H96.4914C96.7655 29.5762 97.7093 28.8678 99.2013 28.8678C100.773 28.8678 101.714 29.3401 102.148 30.4635H102.344C102.658 29.5762 103.836 28.8678 105.331 28.8678C107.53 28.8678 108.551 29.8124 108.551 32.207" fill="#9E0B0B"/>
<path d="M119.979 37.4972H113.969V41.7237C113.969 42.6109 114.44 43.0832 115.304 43.0832C116.168 43.0832 116.599 42.6109 116.599 41.7237V38.8259L119.977 39.1216V41.1918C119.977 43.2311 119.072 45.33 115.264 45.33C111.456 45.33 110.432 43.4672 110.432 41.1918V33.0038C110.432 30.9645 111.533 28.8656 115.264 28.8656C118.995 28.8656 119.977 30.9645 119.977 33.0038V37.4972H119.979ZM113.969 32.4719V35.5749H116.601V32.4719C116.601 31.5846 116.17 31.1123 115.306 31.1123C114.442 31.1123 113.971 31.5846 113.971 32.4719" fill="#9E0B0B"/>
<path d="M75.4774 47.5634H79.1709V68.5809H75.4774V59.0333H72.3365V68.5809H68.6452V47.5634H72.3365V56.6983H75.4774V47.5634Z" fill="#9E0B0B"/>
<path d="M81.1337 64.7981V56.4908C81.1337 54.4516 82.2345 52.3527 86.0032 52.3527C89.7719 52.3527 90.8748 54.4516 90.8748 56.4908V64.7981C90.8748 66.8682 89.8536 68.8192 86.0032 68.8192C82.1527 68.8192 81.1337 66.8682 81.1337 64.7981ZM87.3007 65.2417V55.959C87.3007 55.043 86.8696 54.5994 86.0032 54.5994C85.1367 54.5994 84.6681 55.043 84.6681 55.959V65.2417C84.6681 66.1289 85.1389 66.5725 86.0032 66.5725C86.8674 66.5725 87.3007 66.1289 87.3007 65.2417Z" fill="#9E0B0B"/>
<path d="M102.499 55.842V65.3322C102.499 67.9342 101.321 68.8193 99.1615 68.8193C97.8662 68.8193 96.7655 68.2278 96.4914 67.2236H96.2947L96.1377 68.5831H92.7603V46.9742H96.2947V53.9506H96.4914C96.8053 52.9464 97.8264 52.3549 99.2809 52.3549C101.44 52.3549 102.501 53.3591 102.501 55.842M98.967 56.1664C98.967 55.2196 98.6531 54.659 97.7093 54.659C96.845 54.659 96.2947 55.2505 96.2947 56.0185V65.1534C96.2947 65.9214 96.8052 66.5129 97.6695 66.5129C98.6133 66.5129 98.967 65.9501 98.967 65.0055V56.1664Z" fill="#9E0B0B"/>
<path d="M114.165 55.842V65.3322C114.165 67.9342 112.987 68.8193 110.828 68.8193C109.533 68.8193 108.432 68.2278 108.158 67.2236H107.961L107.804 68.5831H104.427V46.9742H107.961V53.9506H108.158C108.472 52.9464 109.493 52.3549 110.947 52.3549C113.107 52.3549 114.168 53.3591 114.168 55.842M110.633 56.1664C110.633 55.2196 110.319 54.659 109.376 54.659C108.511 54.659 107.961 55.2505 107.961 56.0185V65.1534C107.961 65.9214 108.472 66.5129 109.336 66.5129C110.28 66.5129 110.633 65.9501 110.633 65.0055V56.1664Z" fill="#9E0B0B"/>
<path d="M122.295 52.5888H125.909L122.649 68.1969C122.138 70.6202 121.234 72.2181 118.328 72.2181C116.718 72.2181 115.381 71.567 114.833 70.6224L117.032 69.2629C117.386 69.7947 117.817 69.9735 118.288 69.9735C119.152 69.9735 119.466 69.4703 119.78 68.1991H118.405L115.145 52.591H118.916L120.525 64.1779H120.761L122.293 52.591L122.295 52.5888Z" fill="#9E0B0B"/>
<path d="M126.347 66.9742H124.397V68.5831H126.347V66.9742Z" fill="black"/>
<path d="M127.591 66.5835V62.2136C127.591 61.1212 128.192 60.0132 130.184 60.0132C132.176 60.0132 132.631 61.0285 132.631 62.1518C132.631 62.761 132.507 63.401 132.257 63.8535L130.555 63.6813C130.721 63.3216 130.845 62.8073 130.845 62.1827C130.845 61.5582 130.679 61.1984 130.16 61.1984C129.704 61.1984 129.455 61.4324 129.455 61.9157V66.802C129.455 67.2699 129.704 67.5193 130.16 67.5193C130.615 67.5193 130.823 67.2699 130.823 66.802V64.9768L132.545 65.1335V66.429C132.545 67.6782 132.129 68.7089 130.16 68.7089C128.19 68.7089 127.587 67.6628 127.587 66.5857" fill="black"/>
<path d="M133.524 66.5835V62.1982C133.524 61.1212 134.105 60.0132 136.097 60.0132C138.088 60.0132 138.67 61.1212 138.67 62.1982V66.5835C138.67 67.676 138.13 68.7067 136.097 68.7067C134.063 68.7067 133.524 67.676 133.524 66.5835ZM136.78 66.8175V61.9157C136.78 61.4324 136.552 61.1984 136.095 61.1984C135.637 61.1984 135.389 61.4324 135.389 61.9157V66.8175C135.389 67.2854 135.639 67.5193 136.095 67.5193C136.55 67.5193 136.78 67.2854 136.78 66.8175Z" fill="black"/>
<path d="M148.086 61.7767V68.5831H146.218V61.9488C146.218 61.4655 146.03 61.2315 145.595 61.2315C145.159 61.2315 144.848 61.4655 144.848 61.9179V68.5831H142.98V61.9488C142.98 61.4655 142.794 61.2315 142.359 61.2315C141.923 61.2315 141.612 61.5427 141.612 61.9488V68.5831H139.744V60.139H141.528L141.612 60.8563H141.715C141.861 60.3884 142.359 60.0132 143.146 60.0132C143.974 60.0132 144.474 60.2626 144.702 60.8563H144.806C144.971 60.3884 145.595 60.0132 146.382 60.0132C147.544 60.0132 148.084 60.512 148.084 61.7767" fill="black"/>
<path d="M70.902 74.7363L70.8489 75.096H69.1933L69.0276 76.3054H70.6853L70.6389 76.6586H68.9811L68.7888 78.0755H70.4466L70.4046 78.4286H68.3689L68.8684 74.7363H70.902Z" fill="black"/>
<path d="M71.8303 74.7363H72.2017L73.119 77.6628L74.8364 74.7363H75.2453L73.0792 78.4286H72.993L71.8303 74.7363Z" fill="black"/>
<path d="M78.3067 74.7363L78.2536 75.096H76.5981L76.4345 76.3054H78.0901L78.0437 76.6586H76.3859L76.1936 78.0755H77.8513L77.8094 78.4286H75.7736L76.2732 74.7363H78.3067Z" fill="black"/>
<path d="M79.6241 74.7363H80.5524C80.884 74.7363 81.1205 74.7672 81.2619 74.8312C81.4056 74.893 81.5206 74.9945 81.609 75.1313C81.6974 75.2704 81.7416 75.4293 81.7416 75.6124C81.7416 75.8111 81.6885 75.9965 81.5847 76.1664C81.4808 76.3363 81.3371 76.4666 81.1558 76.5526C80.9746 76.6387 80.7359 76.6806 80.4419 76.6806L81.5581 78.4286H81.1382L80.0241 76.6806H79.7302L79.4937 78.4286H79.1201L79.6196 74.7363H79.6241ZM79.949 75.0916L79.7832 76.3187H80.2076C80.5215 76.3187 80.7292 76.3054 80.8265 76.2812C80.9901 76.2414 81.1205 76.162 81.22 76.045C81.3194 75.928 81.3703 75.7824 81.3703 75.6124C81.3703 75.4204 81.3017 75.2814 81.1625 75.1953C81.0542 75.1269 80.8619 75.0916 80.5834 75.0916H79.949Z" fill="black"/>
<path d="M82.776 74.7363H83.1651L83.9542 76.4114L85.2892 74.7363H85.7379L84.1001 76.7888L83.8746 78.4286H83.5121L83.7376 76.7733L82.776 74.7363Z" fill="black"/>
<path d="M86.3126 74.7363H88.523L88.4744 75.085H87.5438L87.0907 78.4286H86.7171L87.1703 75.085H86.2662L86.3126 74.7363Z" fill="black"/>
<path d="M89.458 74.7363H89.8227L89.6193 76.237H91.5158L91.7192 74.7363H92.0795L91.5799 78.4286H91.2174L91.4672 76.5857H89.5685L89.3254 78.4286H88.9584L89.458 74.7363Z" fill="black"/>
<path d="M93.4676 74.7363H93.8389L93.3394 78.4286H92.9658L93.4676 74.7363Z" fill="black"/>
<path d="M97.7225 74.7363H98.0828L97.5811 78.4286H97.5015L95.4282 75.5815L95.0414 78.4286H94.6745L95.174 74.7363H95.2536L97.3335 77.5899L97.7225 74.7363Z" fill="black"/>
<path d="M102.886 75.5308L102.59 75.7493C102.404 75.5065 102.185 75.3211 101.936 75.1909C101.686 75.0607 101.427 74.9967 101.164 74.9967C100.868 74.9967 100.585 75.0761 100.315 75.2328C100.043 75.3917 99.8312 75.6014 99.6743 75.8618C99.5196 76.1245 99.4422 76.4048 99.4422 76.7049C99.4422 77.111 99.5881 77.4575 99.8777 77.7422C100.169 78.0269 100.523 78.1704 100.941 78.1704C101.191 78.1704 101.429 78.1196 101.659 78.0181C101.889 77.9166 102.075 77.7797 102.218 77.612C102.36 77.4421 102.464 77.2346 102.53 76.9852H101.175V76.6211H102.974C102.937 77.186 102.733 77.6451 102.364 77.996C101.995 78.3469 101.533 78.5235 100.983 78.5235C100.432 78.5235 99.9572 78.3513 99.6036 78.0093C99.2499 77.665 99.0731 77.2346 99.0731 76.716C99.0731 76.3452 99.1659 76.0009 99.3516 75.6809C99.5373 75.3608 99.7937 75.107 100.119 74.9239C100.444 74.7385 100.797 74.6458 101.173 74.6458C101.856 74.6458 102.426 74.9415 102.886 75.5308Z" fill="black"/>
<path d="M108.217 74.7363L108.171 75.0982H106.756L106.591 76.3054H108.01L107.963 76.6586H106.542L106.301 78.4286H105.936L106.438 74.7363H108.217Z" fill="black"/>
<path d="M111.23 74.6436C111.727 74.6436 112.143 74.8069 112.472 75.1335C112.804 75.4602 112.97 75.8729 112.97 76.3717C112.97 76.9786 112.76 77.4906 112.34 77.9033C111.92 78.316 111.396 78.5235 110.77 78.5235C110.238 78.5235 109.811 78.3646 109.491 78.0468C109.17 77.729 109.011 77.3141 109.011 76.7998C109.011 76.4026 109.106 76.0384 109.298 75.7073C109.491 75.3763 109.756 75.1159 110.096 74.9283C110.434 74.7407 110.815 74.6458 111.232 74.6458M111.226 74.9923C110.872 74.9923 110.556 75.0695 110.28 75.224C110.001 75.3785 109.782 75.597 109.621 75.8795C109.46 76.162 109.378 76.4644 109.378 76.7844C109.378 77.0558 109.438 77.2986 109.555 77.5149C109.672 77.7312 109.835 77.8945 110.041 78.0093C110.249 78.124 110.492 78.1792 110.77 78.1792C111.102 78.1792 111.409 78.0998 111.692 77.9386C111.975 77.7775 112.198 77.5568 112.36 77.2721C112.521 76.9874 112.603 76.6806 112.603 76.3518C112.603 75.9148 112.45 75.5683 112.143 75.3123C111.889 75.1004 111.582 74.9923 111.226 74.9923Z" fill="black"/>
<path d="M114.515 74.7363H115.443C115.775 74.7363 116.011 74.7672 116.153 74.8312C116.296 74.893 116.411 74.9945 116.5 75.1313C116.588 75.2704 116.632 75.4293 116.632 75.6124C116.632 75.8111 116.579 75.9965 116.475 76.1664C116.371 76.3363 116.228 76.4666 116.046 76.5526C115.865 76.6387 115.627 76.6806 115.333 76.6806L116.449 78.4286H116.029L114.915 76.6806H114.621L114.384 78.4286H114.011L114.51 74.7363H114.515ZM114.84 75.0916L114.674 76.3187H115.098C115.412 76.3187 115.62 76.3054 115.717 76.2812C115.881 76.2414 116.011 76.162 116.111 76.045C116.21 75.928 116.261 75.7824 116.261 75.6124C116.261 75.4204 116.192 75.2814 116.053 75.1953C115.945 75.1269 115.753 75.0916 115.474 75.0916H114.84Z" fill="black"/>
<path d="M119.581 74.7363H121.791L121.743 75.085H120.812L120.359 78.4286H119.985L120.438 75.085H119.534L119.581 74.7363Z" fill="black"/>
<path d="M122.726 74.7363H123.091L122.888 76.237H124.784L124.987 74.7363H125.348L124.848 78.4286H124.486L124.735 76.5857H122.837L122.594 78.4286H122.227L122.726 74.7363Z" fill="black"/>
<path d="M128.791 74.7363L128.738 75.096H127.083L126.917 76.3054H128.575L128.528 76.6586H126.871L126.678 78.0755H128.336L128.294 78.4286H126.258L126.758 74.7363H128.791Z" fill="black"/>
<path d="M131.972 74.7363H132.337L132.136 76.237H134.032L134.236 74.7363H134.596L134.094 78.4286H133.734L133.984 76.5857H132.083L131.84 78.4286H131.473L131.972 74.7363Z" fill="black"/>
<path d="M137.788 74.6436C138.285 74.6436 138.701 74.8069 139.03 75.1335C139.361 75.4602 139.527 75.8729 139.527 76.3717C139.527 76.9786 139.317 77.4906 138.897 77.9033C138.477 78.316 137.953 78.5235 137.328 78.5235C136.795 78.5235 136.369 78.3646 136.048 78.0468C135.728 77.729 135.568 77.3141 135.568 76.7998C135.568 76.4026 135.664 76.0384 135.856 75.7073C136.048 75.3763 136.313 75.1159 136.654 74.9283C136.992 74.7407 137.372 74.6458 137.79 74.6458M137.783 74.9923C137.43 74.9923 137.114 75.0695 136.837 75.224C136.559 75.3785 136.34 75.597 136.179 75.8795C136.017 76.162 135.935 76.4644 135.935 76.7844C135.935 77.0558 135.995 77.2986 136.112 77.5149C136.229 77.7312 136.393 77.8945 136.598 78.0093C136.806 78.124 137.049 78.1792 137.328 78.1792C137.659 78.1792 137.967 78.0998 138.25 77.9386C138.533 77.7775 138.756 77.5568 138.917 77.2721C139.079 76.9874 139.16 76.6806 139.16 76.3518C139.16 75.9148 139.008 75.5683 138.701 75.3123C138.446 75.1004 138.139 74.9923 137.783 74.9923Z" fill="black"/>
<path d="M144.505 74.7363V78.4286H144.158V75.8861L142.551 78.4286H142.458L141.501 75.7934L140.741 78.4286H140.367L141.435 74.7363H141.497L142.575 77.7378L144.448 74.7363H144.505Z" fill="black"/>
<path d="M148.276 74.7363L148.223 75.096H146.565L146.401 76.3054H148.059L148.011 76.6586H146.353L146.163 78.0755H147.821L147.776 78.4286H145.741L146.24 74.7363H148.276Z" fill="black"/>
</g>
<defs>
<radialGradient id="paint0_radial_3_65" cx="0" cy="0" r="1" gradientUnits="userSpaceOnUse" gradientTransform="translate(39.5207 76.5784) scale(23.1779 2.0768)">
<stop stop-color="#606060"/>
<stop offset="1" stop-color="#606060" stop-opacity="0"/>
</radialGradient>
<clipPath id="clip0_3_65">
<rect width="148.276" height="80" fill="white"/>
</clipPath>
</defs>
</svg>
